<?xml version="1.0" encoding="us-ascii" standalone="no"?><svg xmlns="http://www.w3.org/2000/svg" xmlns:xlink="http://www.w3.org/1999/xlink" contentStyleType="text/css" height="278px" preserveAspectRatio="none" style="width:1286px;height:278px;background:#F9F9F9;" version="1.1" viewBox="0 0 1286 278" width="1286px" zoomAndPan="magnify"><defs/><g><rect fill="#F9F9F9" height="278" style="stroke:none;stroke-width:1.0;" width="1286" x="0" y="0"/><!--cluster FE--><g id="cluster_FE"><path d="M9.5,6 L73.5,6 A5.25,5.25 0 0 1 77,9.5 L84,29.6094 L162.5,29.6094 A3.5,3.5 0 0 1 166,33.1094 L166,259 A3.5,3.5 0 0 1 162.5,262.5 L9.5,262.5 A3.5,3.5 0 0 1 6,259 L6,9.5 A3.5,3.5 0 0 1 9.5,6 " fill="#FAAAC7" style="stroke:#393939;stroke-width:1.0;"/><line style="stroke:#393939;stroke-width:1.0;" x1="6" x2="84" y1="29.6094" y2="29.6094"/><text fill="#000000" font-family="sans-serif" font-size="14" font-weight="bold" lengthAdjust="spacing" textLength="65" x="10" y="22.5332">Frontend</text></g><!--cluster BE--><g id="cluster_BE"><path d="M244.5,6 L304.5,6 A5.25,5.25 0 0 1 308,9.5 L315,29.6094 L755.5,29.6094 A3.5,3.5 0 0 1 759,33.1094 L759,267.5 A3.5,3.5 0 0 1 755.5,271 L244.5,271 A3.5,3.5 0 0 1 241,267.5 L241,9.5 A3.5,3.5 0 0 1 244.5,6 " fill="#AADDFA" style="stroke:#393939;stroke-width:1.0;"/><line style="stroke:#393939;stroke-width:1.0;" x1="241" x2="315" y1="29.6094" y2="29.6094"/><text fill="#000000" font-family="sans-serif" font-size="14" font-weight="bold" lengthAdjust="spacing" textLength="61" x="245" y="22.5332">Backend</text></g><!--cluster DS--><g id="cluster_DS"><path d="M869.5,154 L958.5,154 A5.25,5.25 0 0 1 962,157.5 L969,177.6094 L1275.5,177.6094 A3.5,3.5 0 0 1 1279,181.1094 L1279,267.5 A3.5,3.5 0 0 1 1275.5,271 L869.5,271 A3.5,3.5 0 0 1 866,267.5 L866,157.5 A3.5,3.5 0 0 1 869.5,154 " fill="#FADAAA" style="stroke:#393939;stroke-width:1.0;"/><line style="stroke:#393939;stroke-width:1.0;" x1="866" x2="969" y1="177.6094" y2="177.6094"/><text fill="#000000" font-family="sans-serif" font-size="14" font-weight="bold" lengthAdjust="spacing" textLength="90" x="870" y="170.5332">Data Storage</text></g><!--entity Browser--><g id="elem_Browser"><rect fill="#F1F1F1" height="47.6094" rx="3.5" ry="3.5" style="stroke:#181818;stroke-width:0.5;" width="91" x="40.5" y="42"/><rect fill="#F1F1F1" height="10" style="stroke:#181818;stroke-width:0.5;" width="15" x="111.5" y="47"/><rect fill="#F1F1F1" height="2" style="stroke:#181818;stroke-width:0.5;" width="4" x="109.5" y="49"/><rect fill="#F1F1F1" height="2" style="stroke:#181818;stroke-width:0.5;" width="4" x="109.5" y="53"/><text fill="#000000" font-family="sans-serif" font-size="14" lengthAdjust="spacing" textLength="51" x="55.5" y="76.5332">Browser</text></g><!--entity WebApp--><g id="elem_WebApp"><rect fill="#F1F1F1" height="47.6094" rx="3.5" ry="3.5" style="stroke:#181818;stroke-width:0.5;" width="128" x="22" y="198.5"/><rect fill="#F1F1F1" height="10" style="stroke:#181818;stroke-width:0.5;" width="15" x="130" y="203.5"/><rect fill="#F1F1F1" height="2" style="stroke:#181818;stroke-width:0.5;" width="4" x="128" y="205.5"/><rect fill="#F1F1F1" height="2" style="stroke:#181818;stroke-width:0.5;" width="4" x="128" y="209.5"/><text fill="#000000" font-family="sans-serif" font-size="14" lengthAdjust="spacing" textLength="88" x="37" y="233.0332">HTML/CSS/JS</text></g><!--entity Server--><g id="elem_Server"><rect fill="#F1F1F1" height="65.2188" rx="3.5" ry="3.5" style="stroke:#181818;stroke-width:0.5;" width="122" x="257" y="190"/><rect fill="#F1F1F1" height="10" style="stroke:#181818;stroke-width:0.5;" width="15" x="359" y="195"/><rect fill="#F1F1F1" height="2" style="stroke:#181818;stroke-width:0.5;" width="4" x="357" y="197"/><rect fill="#F1F1F1" height="2" style="stroke:#181818;stroke-width:0.5;" width="4" x="357" y="201"/><text fill="#000000" font-family="sans-serif" font-size="14" lengthAdjust="spacing" textLength="82" x="272" y="224.5332">HTTP Server</text><text fill="#000000" font-family="sans-serif" font-size="14" lengthAdjust="spacing" textLength="72" x="272" y="242.1426">(REST API)</text></g><!--entity Logic--><g id="elem_Logic"><rect fill="#F1F1F1" height="47.6094" rx="3.5" ry="3.5" style="stroke:#181818;stroke-width:0.5;" width="135" x="424.5" y="42"/><rect fill="#F1F1F1" height="10" style="stroke:#181818;stroke-width:0.5;" width="15" x="539.5" y="47"/><rect fill="#F1F1F1" height="2" style="stroke:#181818;stroke-width:0.5;" width="4" x="537.5" y="49"/><rect fill="#F1F1F1" height="2" style="stroke:#181818;stroke-width:0.5;" width="4" x="537.5" y="53"/><text fill="#000000" font-family="sans-serif" font-size="14" lengthAdjust="spacing" textLength="95" x="439.5" y="76.5332">Business Logic</text></g><!--entity DB--><g id="elem_DB"><rect fill="#F1F1F1" height="47.6094" rx="3.5" ry="3.5" style="stroke:#181818;stroke-width:0.5;" width="155" x="414.5" y="198.5"/><rect fill="#F1F1F1" height="10" style="stroke:#181818;stroke-width:0.5;" width="15" x="549.5" y="203.5"/><rect fill="#F1F1F1" height="2" style="stroke:#181818;stroke-width:0.5;" width="4" x="547.5" y="205.5"/><rect fill="#F1F1F1" height="2" style="stroke:#181818;stroke-width:0.5;" width="4" x="547.5" y="209.5"/><text fill="#000000" font-family="sans-serif" font-size="14" lengthAdjust="spacing" textLength="115" x="429.5" y="233.0332">SQLite Repository</text></g><!--entity KafkaP--><g id="elem_KafkaP"><rect fill="#F1F1F1" height="47.6094" rx="3.5" ry="3.5" style="stroke:#181818;stroke-width:0.5;" width="138" x="605" y="198.5"/><rect fill="#F1F1F1" height="10" style="stroke:#181818;stroke-width:0.5;" width="15" x="723" y="203.5"/><rect fill="#F1F1F1" height="2" style="stroke:#181818;stroke-width:0.5;" width="4" x="721" y="205.5"/><rect fill="#F1F1F1" height="2" style="stroke:#181818;stroke-width:0.5;" width="4" x="721" y="209.5"/><text fill="#000000" font-family="sans-serif" font-size="14" lengthAdjust="spacing" textLength="98" x="620" y="233.0332">Kafka Producer</text></g><!--entity SQLite--><g id="elem_SQLite"><path d="M1199.5,209 C1199.5,199 1231,199 1231,199 C1231,199 1262.5,199 1262.5,209 L1262.5,235.6094 C1262.5,245.6094 1231,245.6094 1231,245.6094 C1231,245.6094 1199.5,245.6094 1199.5,235.6094 L1199.5,209 " fill="#A4DBD8" style="stroke:#191919;stroke-width:0.5;"/><path d="M1199.5,209 C1199.5,219 1231,219 1231,219 C1231,219 1262.5,219 1262.5,209 " fill="none" style="stroke:#191919;stroke-width:0.5;"/><text fill="#191919" font-family="sans-serif" font-size="14" lengthAdjust="spacing" textLength="43" x="1209.5" y="237.5332">SQLite</text></g><!--entity Kafka--><g id="elem_Kafka"><path d="M887,208.5 L979,208.5 C984,208.5 984,222.3047 984,222.3047 C984,222.3047 984,236.1094 979,236.1094 L887,236.1094 C882,236.1094 882,222.3047 882,222.3047 C882,222.3047 882,208.5 887,208.5 " fill="#E55756" style="stroke:#191919;stroke-width:1.5;"/><path d="M979,208.5 C974,208.5 974,222.3047 974,222.3047 C974,236.1094 979,236.1094 979,236.1094 " fill="none" style="stroke:#191919;stroke-width:1.5;"/><text fill="#FFFFFF" font-family="sans-serif" font-size="14" lengthAdjust="spacing" textLength="82" x="887" y="228.0332">Kafka Broker</text></g><!--entity Logger--><g id="elem_Logger"><rect fill="#F1F1F1" height="65.2188" rx="3.5" ry="3.5" style="stroke:#181818;stroke-width:0.5;" width="145" x="1019.5" y="190"/><rect fill="#F1F1F1" height="10" style="stroke:#181818;stroke-width:0.5;" width="15" x="1144.5" y="195"/><rect fill="#F1F1F1" height="2" style="stroke:#181818;stroke-width:0.5;" width="4" x="1142.5" y="197"/><rect fill="#F1F1F1" height="2" style="stroke:#181818;stroke-width:0.5;" width="4" x="1142.5" y="201"/><text fill="#000000" font-family="sans-serif" font-size="14" lengthAdjust="spacing" textLength="105" x="1034.5" y="224.5332">Kafka Consumer</text><text fill="#000000" font-family="sans-serif" font-size="14" lengthAdjust="spacing" textLength="55" x="1034.5" y="242.1426">(Logger)</text></g><!--link Browser to WebApp--><g id="link_Browser_WebApp"><path d="M86,90.13 C86,119.34 86,169.3 86,198.46 " fill="none" id="Browser-WebApp" style="stroke:#191919;stroke-width:1.0;"/></g><!--link WebApp to Server--><g id="link_WebApp_Server"><path d="M150.01,222.5 C183.41,222.5 218.05,222.5 251,222.5 " fill="none" id="WebApp-to-Server" style="stroke:#191919;stroke-width:1.0;"/><polygon fill="#191919" points="257,222.5,248,218.5,252,222.5,248,226.5,257,222.5" style="stroke:#191919;stroke-width:1.0;"/><text fill="#000000" font-family="sans-serif" font-size="13" lengthAdjust="spacing" textLength="70" x="168.5" y="215.9951">HTTP/JSON</text></g><!--link Logic to Server--><g id="link_Logic_Server"><path d="M463.3,90 C444.22,105.5 418.77,126.58 397,146 C381.28,160.02 368.6507,171.8965 354.5107,185.5865 " fill="none" id="Logic-to-Server" style="stroke:#191919;stroke-width:1.0;"/><polygon fill="#191919" points="350.2,189.76,359.4483,186.3735,353.7922,186.2821,353.8837,180.626,350.2,189.76" style="stroke:#191919;stroke-width:1.0;"/></g><!--link Logic to DB--><g id="link_Logic_DB"><path d="M492,90.13 C492,119.34 492,163.3 492,192.46 " fill="none" id="Logic-to-DB" style="stroke:#191919;stroke-width:1.0;"/><polygon fill="#191919" points="492,198.46,496,189.46,492,193.46,488,189.46,492,198.46" style="stroke:#191919;stroke-width:1.0;"/><text fill="#000000" font-family="sans-serif" font-size="13" lengthAdjust="spacing" textLength="72" x="493" y="134.4951">SQL queries</text></g><!--link Logic to KafkaP--><g id="link_Logic_KafkaP"><path d="M531.59,90.13 C545.47,98.87 560.85,109.3 574,120 C603.93,144.36 630.5047,172.2626 649.8347,193.8226 " fill="none" id="Logic-to-KafkaP" style="stroke:#191919;stroke-width:1.0;"/><polygon fill="#191919" points="653.84,198.29,650.8103,188.9187,650.5022,194.5672,644.8538,194.2591,653.84,198.29" style="stroke:#191919;stroke-width:1.0;"/><text fill="#000000" font-family="sans-serif" font-size="13" lengthAdjust="spacing" textLength="80" x="595" y="134.4951">Async Events</text></g><!--link DB to SQLite--><g id="link_DB_SQLite"><path d="M509.22,198.36 C529.08,172.83 564.33,134.07 605.5,118 C663.36,95.42 1110.05,88.11 1164.5,118 C1195.6,135.07 1212.1587,167.9225 1221.4787,193.1225 " fill="none" id="DB-to-SQLite" style="stroke:#191919;stroke-width:1.0;"/><polygon fill="#191919" points="1223.56,198.75,1224.1897,188.9213,1221.8256,194.0604,1216.6865,191.6963,1223.56,198.75" style="stroke:#191919;stroke-width:1.0;"/></g><!--link KafkaP to Kafka--><g id="link_KafkaP_Kafka"><path d="M743.07,222.5 C786.67,222.5 836.07,222.5 875.76,222.5 " fill="none" id="KafkaP-to-Kafka" style="stroke:#191919;stroke-width:1.0;"/><polygon fill="#191919" points="881.76,222.5,872.76,218.5,876.76,222.5,872.76,226.5,881.76,222.5" style="stroke:#191919;stroke-width:1.0;"/><text fill="#000000" font-family="sans-serif" font-size="13" lengthAdjust="spacing" textLength="102" x="761.5" y="215.9951">vocabulary-events</text></g><!--link Kafka to Logger--><g id="link_Kafka_Logger"><path d="M984.24,222.5 C995.89,222.5 1001.53,222.5 1013.18,222.5 " fill="none" id="Kafka-to-Logger" style="stroke:#191919;stroke-width:1.0;"/><polygon fill="#191919" points="1019.18,222.5,1010.18,218.5,1014.18,222.5,1010.18,226.5,1019.18,222.5" style="stroke:#191919;stroke-width:1.0;"/></g><!--SRC=[xLPDSzem4BtxLspJ2nn80i59uqEd6EEc2RGKa_JGzY1i0HgCv4eo6QQJ_zwrPGUtWGpf9BVWWP5tdz_RBycyqNEwfB0aKbbMGi85cL4uyANWclBe08W2lmTlfuIGy0n-Mu2VxwuKjuhAdvctM1l7nNZGF-e6mT5ba3k_qKadIQmxgq11er7QDc8kBaej5xK8YQ8fARKknkCX15IkgFp1QwDUC8REy5CzfpVc8gPKCKwLWhwOiJ1tvolZ3RxscQOmeebGJ0kvpW6UQxnNPBeWC9GYIiCYhTmqnCXDkD1uNwWva4M42NxvREK2c5FfgnWyrm4KXLyfbOogYiSmEz1HQnv2RqMvhfRU8vf0W27YNLuIByZA7s43Yf94Y9WGXLYJLOuoozoFaYawJL9O-0ML1_SfLHFk2gxIPLvN36z6PRqi6wunTS_DqpRC9cme4t1W9K8oIMCYrmrgaZ2iY2WOh0_OrdHfMPPQC9uGIPQGDNicHSgZheY51Fyykoe0DIUHk6Ly1bCIArhnZCnJakCSdLNi7Od3PTYQvzbLyVaunpjS0SL2yP3ssHI_dBf2HbGQyCbvTcq1VyJGamjA4Ba7TOxUu1vdtL_V8CTp5YxoYMzM2wmAfCTM3575p5J9Yt0tvYfJPdsGsLrL07yr2rb2k2x9_-bfpxRFxDF7T3SAHV-t1dDe_wryF_ZRPJjjp_NUxIUxBJ6SOQRNktBotOxR_NzoBlIkkAcTNK-YtgjS9CHJP8Vc0vudfZF9g73hlr2rGlHA4RyOUnpJK3Cy_fvXWf_I4dCqFyEkyVt715_Vuw_lyPTuZmzZFFIl1tt06YdSFZXlhUDM-_2aDfwduDC9D6rejPpsiNDimo2uWinTjseVX_rL2vH8PKWXOafBDacp3LYtBicAm2Z5itT97SZkQkD17O9UQOGUNp6SuoN6PbtU30m8BeGE4g5py6cxuJ9TD0zk1fP7foIDDJuQYWZ_IpZGJPejksdr2P-bs147P6frSVDfkNPWTFq7]--></g></svg>